<svg xmlns="http://www.w3.org/2000/svg" version="1.1" xmlns:xlink="http://www.w3.org/1999/xlink" xmlns:svgjs="http://svgjs.dev/svgjs" width="1000" height="1000" viewBox="0 0 1000 1000"><rect width="1000" height="1000" fill="#3178c6"></rect><g transform="matrix(0.7,0,0,0.7,150.6190877353268,146.08680161943317)"><svg viewBox="0 0 244 247" data-background-color="#3178c6" preserveAspectRatio="xMidYMid meet" height="1012" width="1000" xmlns="http://www.w3.org/2000/svg" xmlns:xlink="http://www.w3.org/1999/xlink"><g id="tight-bounds" transform="matrix(1,0,0,1,-0.21559106752462753,-0.09999999999999432)"><svg viewBox="0 0 244.43135999999998 247.2" height="247.2" width="244.43135999999998"><g><svg></svg></g><g><svg viewBox="0 0 244.43135999999998 247.2" height="247.2" width="244.43135999999998"><g transform="matrix(1,0,0,1,0,67.52108620835841)"><svg viewBox="0 0 244.43135999999998 112.15782758328318" height="112.15782758328318" width="244.43135999999998"><g><svg viewBox="0 0 244.43135999999998 112.15782758328318" height="112.15782758328318" width="244.43135999999998"><g transform="matrix(1,0,0,1,0,57.057625311770366)"><svg viewBox="0 0 244.43135999999998 55.10020227151281" height="55.10020227151281" width="244.43135999999998"><g><svg viewBox="0 0 244.43135999999998 55.10020227151281" height="55.10020227151281" width="244.43135999999998"><g><svg viewBox="0 0 244.43135999999998 33.78106199767532" height="33.78106199767532" width="244.43135999999998"><g transform="matrix(1,0,0,1,0,0)"><svg width="244.43135999999998" viewBox="3.966300000000002 -22.2515 357.30566 49.380579999999995" height="33.78106199767532" data-palette-color="#ffffff"><path d="M21.385-15.563l-4.483 31.028-5.988-0.865 4.484-31.028-11.432-1.652 1.404-4.121 28.425 4.107-1.404 4.122zM67.258-14.226l-14.519 18.529-1.782 15.457-6.02-0.694 1.772-15.368-9.453-21.384 6.855 0.791 4.867 12.61 1.577 5.004 0.477 0.055 2.772-4.482 7.732-11.178zM78.839-8.907l-2.785 31.226-6.006-0.536 3.165-35.489 10.708 0.955c2.032 0.181 3.863 0.592 5.492 1.233 1.629 0.647 3.002 1.496 4.12 2.546 1.118 1.05 1.947 2.292 2.489 3.726 0.535 1.433 0.723 3.036 0.565 4.809v0c-0.17 1.906-0.684 3.577-1.542 5.013-0.858 1.436-1.931 2.622-3.219 3.558-1.288 0.936-2.724 1.614-4.307 2.035-1.584 0.421-3.176 0.56-4.776 0.417v0c-0.212-0.019-0.434-0.049-0.665-0.089-0.231-0.034-0.507-0.089-0.829-0.164v0l0.728-3.991c0.236 0.055 0.46 0.095 0.672 0.12 0.205 0.025 0.398 0.045 0.577 0.061v0c0.969 0.086 1.873 0.006 2.712-0.24 0.833-0.254 1.572-0.67 2.219-1.248 0.647-0.578 1.174-1.308 1.581-2.188 0.413-0.88 0.673-1.918 0.78-3.113v0c0.118-1.328 0.027-2.484-0.273-3.468-0.3-0.991-0.791-1.824-1.474-2.501-0.682-0.683-1.532-1.211-2.549-1.582-1.01-0.378-2.17-0.625-3.478-0.742v0zM123.299 25.743l-21.168-1.334 2.242-35.559 21.627 1.363-1.068 4.221-14.811-0.934-0.676 10.729 13.104 0.826-1.04 4.103-12.325-0.777-0.765 12.136 15.948 1.005zM131.805 9.668l16.686 0.662-0.158 4.007-16.687-0.662zM174.629 7.443v0c0.969 0.295 1.896 0.69 2.782 1.184 0.879 0.501 1.659 1.106 2.342 1.817 0.676 0.711 1.213 1.519 1.612 2.425 0.399 0.906 0.59 1.91 0.573 3.01v0c-0.021 1.313-0.362 2.638-1.023 3.974-0.661 1.336-1.624 2.541-2.887 3.615-1.27 1.073-2.834 1.942-4.692 2.607-1.857 0.671-3.993 0.987-6.406 0.949v0l-10.118-0.159 0.56-35.626 11.109 0.175c2.046 0.032 3.826 0.28 5.339 0.744 1.52 0.464 2.784 1.061 3.792 1.79 1.009 0.729 1.762 1.568 2.261 2.516 0.498 0.948 0.74 1.915 0.724 2.902v0c-0.013 0.847-0.189 1.651-0.528 2.412-0.339 0.768-0.78 1.491-1.324 2.169-0.544 0.678-1.174 1.312-1.89 1.9-0.716 0.589-1.458 1.121-2.226 1.596zM163.099 10.522l-0.191 12.158 4.67 0.074c1.44 0.023 2.669-0.148 3.688-0.512 1.019-0.364 1.85-0.848 2.493-1.451 0.643-0.597 1.114-1.276 1.412-2.038 0.292-0.769 0.444-1.55 0.457-2.344v0c0.016-0.987-0.164-1.839-0.539-2.558-0.382-0.719-0.926-1.318-1.632-1.796-0.706-0.471-1.55-0.828-2.534-1.07-0.983-0.242-2.074-0.373-3.274-0.392v0zM163.165 6.362l7.929 0.125c1.031-0.697 1.867-1.517 2.509-2.461 0.635-0.95 0.962-2.008 0.98-3.175v0c0.024-1.553-0.566-2.796-1.771-3.728-1.212-0.926-2.945-1.407-5.198-1.442v0l-4.28-0.068zM201.675 13.118l-5.89 0.075 0.178 13.859-6.03 0.077-0.456-35.627 10.969-0.14c1.947-0.025 3.696 0.199 5.249 0.672 1.553 0.48 2.871 1.137 3.956 1.97 1.077 0.84 1.91 1.822 2.498 2.948 0.594 1.126 0.9 2.339 0.916 3.639v0c0.015 1.153-0.185 2.233-0.598 3.238-0.407 1.012-0.945 1.949-1.614 2.811-0.669 0.862-1.426 1.642-2.27 2.339-0.838 0.697-1.677 1.305-2.517 1.822v0l10.515 15.987-7.119 0.091zM195.562-4.296l0.17 13.329 7.32-0.093c0.596-0.334 1.141-0.748 1.634-1.241 0.5-0.493 0.93-1.045 1.289-1.657 0.352-0.611 0.62-1.268 0.805-1.97 0.191-0.696 0.282-1.417 0.272-2.164v0c-0.011-0.893-0.179-1.725-0.502-2.494-0.317-0.776-0.782-1.443-1.396-2.002-0.614-0.559-1.383-0.996-2.307-1.311-0.917-0.315-1.983-0.465-3.196-0.449v0zM246.376 25.453l-3.438-9.049-14.257 0.624-2.585 9.312-5.395 0.236 11.051-36.147 6.823-0.299 14.165 35.044zM229.789 12.836l11.639-0.509-4.812-12.983-1.551-5.017-0.489 0.022-1.087 5.132zM264.775 24.293l-5.166 0.38-2.619-35.533 8.486-0.626 16.777 21.515 2.839 4.504 0.489-0.036-0.71-5.272-1.623-22.021 5.166-0.38 2.619 35.533-5.644 0.416-20.168-25.747-2.604-4.32-0.489 0.036 0.7 5.142zM301.278 21.249l-3.864-35.42 12.595-1.374c3.108-0.339 5.895-0.217 8.359 0.366 2.457 0.577 4.565 1.517 6.324 2.821 1.758 1.297 3.154 2.908 4.188 4.834 1.028 1.927 1.671 4.066 1.928 6.419v0c0.162 1.485 0.163 3.003 0.004 4.556-0.167 1.547-0.521 3.058-1.065 4.532-0.537 1.467-1.273 2.872-2.206 4.214-0.927 1.342-2.079 2.547-3.458 3.617-1.372 1.068-2.978 1.964-4.817 2.688-1.839 0.724-3.928 1.213-6.268 1.468v0zM303.873-10.57l2.935 26.91 6.621-0.722c2.161-0.236 4-0.798 5.519-1.689 1.519-0.89 2.735-2.008 3.648-3.355 0.912-1.354 1.536-2.89 1.871-4.61 0.335-1.726 0.398-3.547 0.189-5.463v0c-0.228-2.094-0.73-3.924-1.504-5.489-0.774-1.565-1.799-2.848-3.076-3.849-1.276-1.001-2.785-1.705-4.526-2.112-1.741-0.407-3.682-0.494-5.822-0.26v0zM361.272-22.252l-9.367 21.596 2.179 15.406-6 0.849-2.167-15.317-14.547-18.303 6.832-0.967 7.895 10.973 2.789 4.443 0.476-0.068 1.549-5.036 4.658-12.769z" opacity="1" transform="matrix(1,0,0,1,0,0)" fill="#ffffff" class="undefined-text-0" data-fill-palette-color="primary" id="text-0"></path></svg></g></svg></g><g transform="matrix(1,0,0,1,42.775487999999996,43.56817719896308)"><svg viewBox="0 0 158.880384 11.532025072549738" height="11.532025072549738" width="158.880384"><g transform="matrix(1,0,0,1,0,0)"><svg width="158.880384" viewBox="4.83 -39.6 732.53 53.17" height="11.532025072549738" data-palette-color="#ffffff"><path d="M10.03 0L4.83 0 4.83-35.77 13.38-35.77 28.59-12.99 31.1-8.28 31.59-8.28 31.27-13.6 31.27-35.77 36.47-35.77 36.47 0 30.79 0 12.5-27.27 10.21-31.79 9.72-31.79 10.03-26.59 10.03 0ZM56.35 0.49L56.35 0.49Q53.29 0.49 50.96-0.54 48.63-1.56 47.04-3.31 45.46-5.05 44.64-7.35 43.82-9.64 43.82-12.21L43.82-12.21Q43.82-15.16 44.87-17.74 45.92-20.31 47.81-22.23 49.7-24.15 52.32-25.26 54.93-26.37 58.05-26.37L58.05-26.37Q61.11-26.37 63.45-25.34 65.79-24.32 67.38-22.56 68.97-20.8 69.79-18.49 70.6-16.19 70.6-13.62L70.6-13.62Q70.6-10.64 69.54-8.07 68.48-5.49 66.57-3.59 64.67-1.68 62.06-0.6 59.45 0.49 56.35 0.49ZM57.37-3.74L57.37-3.74Q58.93-3.74 60.23-4.38 61.52-5.03 62.45-6.19 63.38-7.35 63.89-8.96 64.4-10.57 64.4-12.52L64.4-12.52Q64.4-14.43 63.9-16.16 63.4-17.9 62.45-19.23 61.5-20.56 60.13-21.35 58.76-22.14 57.03-22.14L57.03-22.14Q55.44-22.14 54.15-21.48 52.85-20.83 51.94-19.65 51.02-18.48 50.51-16.86 50-15.23 50-13.31L50-13.31Q50-11.38 50.5-9.64 51-7.91 51.95-6.59 52.9-5.27 54.27-4.5 55.64-3.74 57.37-3.74ZM77.19 0L77.19-25.88 81.98-25.88 82.81-21.46Q83.66-22.24 84.72-23.11 85.79-23.97 86.99-24.69 88.2-25.42 89.51-25.89 90.82-26.37 92.13-26.37L92.13-26.37Q93.31-26.37 94.4-25.99 95.5-25.61 96.43-24.95 97.36-24.29 98.07-23.38 98.77-22.46 99.16-21.36L99.16-21.36Q100.12-22.17 101.17-23.06 102.22-23.95 103.41-24.68 104.61-25.42 105.94-25.89 107.27-26.37 108.78-26.37L108.78-26.37Q110.59-26.37 112.03-25.66 113.47-24.95 114.48-23.72 115.5-22.49 116.05-20.81 116.6-19.14 116.6-17.19L116.6-17.19 116.6 0 110.66 0 110.66-16.53Q110.66-18.99 109.42-20.42 108.17-21.85 106.07-21.85L106.07-21.85Q105.2-21.85 104.4-21.59 103.61-21.34 102.85-20.89 102.09-20.43 101.34-19.8 100.58-19.17 99.78-18.43L99.78-18.43Q99.82-18.14 99.82-17.85 99.82-17.55 99.82-17.19L99.82-17.19 99.82 0 93.92 0 93.92-16.53Q93.92-17.75 93.57-18.74 93.23-19.73 92.62-20.42 92.01-21.12 91.16-21.48 90.3-21.85 89.28-21.85L89.28-21.85Q88.42-21.85 87.64-21.59 86.86-21.34 86.12-20.89 85.37-20.43 84.63-19.82 83.88-19.21 83.1-18.48L83.1-18.48 83.1 0 77.19 0ZM124.87 0L124.87-25.88 130.8-25.88 130.8 0 124.87 0ZM127.82-30.98L127.82-30.98Q127.04-30.98 126.4-31.24 125.75-31.49 125.27-31.93 124.8-32.37 124.54-32.98 124.28-33.59 124.28-34.3L124.28-34.3Q124.28-35.03 124.57-35.66 124.85-36.28 125.35-36.76 125.85-37.23 126.52-37.5 127.19-37.77 127.97-37.77L127.97-37.77Q128.73-37.77 129.36-37.5 130-37.23 130.46-36.78 130.93-36.33 131.19-35.71 131.46-35.08 131.46-34.38L131.46-34.38Q131.46-33.64 131.18-33.02 130.9-32.4 130.4-31.95 129.9-31.49 129.24-31.24 128.58-30.98 127.82-30.98ZM139 0L139-25.88 143.79-25.88 144.62-21.46Q145.47-22.24 146.55-23.11 147.62-23.97 148.89-24.69 150.16-25.42 151.56-25.89 152.97-26.37 154.48-26.37L154.48-26.37Q156.26-26.37 157.72-25.7 159.17-25.02 160.2-23.82 161.22-22.61 161.78-20.92 162.34-19.24 162.34-17.24L162.34-17.24 162.34 0 156.41 0 156.41-16.53Q156.41-17.85 156.04-18.85 155.68-19.85 155.03-20.51 154.38-21.17 153.49-21.51 152.6-21.85 151.58-21.85L151.58-21.85Q149.77-21.85 148.16-20.92 146.55-20 144.91-18.48L144.91-18.48 144.91 0 139 0ZM184.46-3.81L184.46-3.81Q183.83-3.27 182.93-2.53 182.04-1.78 180.96-1.11 179.87-0.44 178.59 0.02 177.31 0.49 175.89 0.49L175.89 0.49Q174.45 0.49 173.22-0.04 171.98-0.56 171.07-1.5 170.15-2.44 169.63-3.75 169.1-5.05 169.1-6.64L169.1-6.64Q169.1-8.3 169.78-9.89 170.45-11.47 172.02-12.72 173.6-13.96 176.18-14.73 178.77-15.5 182.58-15.5L182.58-15.5 184.36-15.5 184.36-17.5Q184.36-18.58 184-19.43 183.63-20.29 182.97-20.9 182.31-21.51 181.4-21.83 180.48-22.14 179.36-22.14L179.36-22.14Q178.48-22.14 177.48-21.94 176.48-21.73 175.5-21.36 174.52-21 173.6-20.5 172.67-20 171.94-19.41L171.94-19.41 171.5-19.65 170.37-23.75Q173.33-25.29 175.87-25.83 178.41-26.37 180.63-26.37L180.63-26.37Q182.92-26.37 184.72-25.9 186.51-25.44 187.76-24.48 189-23.51 189.65-22.03 190.3-20.56 190.3-18.53L190.3-18.53 190.3-6.57Q190.3-6.2 190.36-5.76 190.42-5.32 190.6-4.93 190.78-4.54 191.14-4.27 191.49-4 192.08-4L192.08-4Q192.42-4 192.91-4.1 193.4-4.2 193.88-4.42L193.88-4.42 193.88-1.49Q192.57-0.59 191.26-0.05 189.95 0.49 188.71 0.49L188.71 0.49Q187.73 0.49 187.02 0.12 186.32-0.24 185.83-0.84 185.34-1.44 185.01-2.21 184.68-2.98 184.46-3.81ZM184.36-6.96L184.36-12.62 182.82-12.62Q180.29-12.62 178.74-12.27 177.18-11.91 176.33-11.29 175.48-10.67 175.2-9.85 174.91-9.03 174.91-8.08L174.91-8.08Q174.91-7.08 175.21-6.32 175.5-5.57 176-5.05 176.5-4.54 177.18-4.27 177.87-4 178.65-4L178.65-4Q179.24-4 179.87-4.14 180.51-4.27 181.2-4.61 181.9-4.96 182.68-5.52 183.46-6.08 184.36-6.96L184.36-6.96ZM199.15 0L199.15-39.11 205.06-39.11 205.06 0 199.15 0ZM226.05-7.15L226.05-21.66 220.85-21.66 221.29-24.44Q223.22-24.93 224.38-25.54 225.54-26.15 226.31-27.04 227.08-27.93 227.65-29.21 228.23-30.49 228.98-32.32L228.98-32.32 231.82-32.32 231.82-25.88 241.12-25.88 240.07-21.66 231.99-21.66 231.99-8.33Q231.99-7.13 232.33-6.31 232.67-5.49 233.31-4.98 233.94-4.47 234.83-4.24 235.72-4 236.85-4L236.85-4Q237.92-4 238.98-4.2 240.04-4.39 241-4.76L241-4.76 241-1.78Q239.34-0.66 237.44-0.09 235.55 0.49 233.62 0.49L233.62 0.49Q229.94 0.49 228-1.51 226.05-3.52 226.05-7.15L226.05-7.15ZM254.37 0L245.12-25.88 251.66-25.88 256.69-9.3 257.81-4.44 258.3-4.44 259.4-9.3 264.48-25.88 270.07-25.88 256.18 13.09 250.71 13.09 256.18 0 254.37 0ZM281.32-18.46L281.32-4.76Q281.93-4.47 282.63-4.27 283.32-4.08 283.98-3.96 284.64-3.83 285.25-3.78 285.86-3.74 286.3-3.74L286.3-3.74Q288.18-3.74 289.7-4.48 291.21-5.22 292.28-6.51 293.36-7.79 293.93-9.5 294.51-11.21 294.51-13.16L294.51-13.16Q294.51-14.99 294.03-16.58 293.55-18.16 292.7-19.34 291.85-20.51 290.62-21.18 289.4-21.85 287.94-21.85L287.94-21.85Q286.18-21.85 284.48-20.91 282.79-19.97 281.32-18.46L281.32-18.46ZM280.15-25.88L281.03-21.53Q281.91-22.36 282.93-23.22 283.96-24.07 285.14-24.77 286.33-25.46 287.68-25.92 289.04-26.37 290.58-26.37L290.58-26.37Q292.94-26.37 294.81-25.33 296.68-24.29 297.97-22.57 299.27-20.85 299.96-18.62 300.66-16.38 300.66-14.01L300.66-14.01Q300.66-10.89 299.51-8.23 298.36-5.57 296.39-3.63 294.41-1.68 291.75-0.6 289.09 0.49 286.08 0.49L286.08 0.49Q285.5 0.49 284.85 0.45 284.2 0.42 283.58 0.34 282.96 0.27 282.37 0.16 281.79 0.05 281.32-0.1L281.32-0.1 281.32 13.09 275.41 13.09 275.41-25.88 280.15-25.88ZM307.22 0L307.22-25.88 313.16-25.88 313.16 0 307.22 0ZM310.18-30.98L310.18-30.98Q309.4-30.98 308.75-31.24 308.1-31.49 307.63-31.93 307.15-32.37 306.89-32.98 306.64-33.59 306.64-34.3L306.64-34.3Q306.64-35.03 306.92-35.66 307.2-36.28 307.7-36.76 308.2-37.23 308.87-37.5 309.54-37.77 310.32-37.77L310.32-37.77Q311.08-37.77 311.72-37.5 312.35-37.23 312.81-36.78 313.28-36.33 313.55-35.71 313.82-35.08 313.82-34.38L313.82-34.38Q313.82-33.64 313.53-33.02 313.25-32.4 312.75-31.95 312.25-31.49 311.59-31.24 310.93-30.98 310.18-30.98ZM321.36 0L321.36-25.88 326.14-25.88 326.97-21.46Q327.83-22.24 328.9-23.11 329.97-23.97 331.24-24.69 332.51-25.42 333.92-25.89 335.32-26.37 336.84-26.37L336.84-26.37Q338.62-26.37 340.07-25.7 341.52-25.02 342.55-23.82 343.57-22.61 344.14-20.92 344.7-19.24 344.7-17.24L344.7-17.24 344.7 0 338.76 0 338.76-16.53Q338.76-17.85 338.4-18.85 338.03-19.85 337.38-20.51 336.74-21.17 335.85-21.51 334.96-21.85 333.93-21.85L333.93-21.85Q332.12-21.85 330.51-20.92 328.9-20 327.26-18.48L327.26-18.48 327.26 0 321.36 0ZM365.86 1.78L359.95 1.78Q359.39 2.1 358.78 2.51 358.17 2.93 357.65 3.43 357.12 3.93 356.78 4.53 356.44 5.13 356.44 5.81L356.44 5.81Q356.44 6.54 356.86 7.18 357.29 7.81 358.13 8.29 358.98 8.76 360.22 9.05 361.47 9.33 363.08 9.33L363.08 9.33Q364.93 9.33 366.37 8.96 367.81 8.59 368.8 7.97 369.79 7.35 370.3 6.54 370.82 5.74 370.82 4.86L370.82 4.86Q370.82 4.08 370.43 3.5 370.04 2.93 369.36 2.54 368.69 2.15 367.79 1.97 366.89 1.78 365.86 1.78L365.86 1.78ZM356.34 1.29L356.34 1.29Q354.66 0.71 353.59-0.26 352.53-1.22 352.53-2.54L352.53-2.54Q352.53-3.34 352.96-4.08 353.39-4.81 354.08-5.47 354.78-6.13 355.66-6.73 356.53-7.32 357.44-7.89L357.44-7.89Q355.92-8.54 354.86-9.45 353.8-10.35 353.13-11.43 352.46-12.5 352.15-13.7 351.85-14.89 351.85-16.11L351.85-16.11Q351.85-18.46 352.85-20.35 353.85-22.24 355.5-23.58 357.15-24.93 359.26-25.65 361.37-26.37 363.61-26.37L363.61-26.37Q365.3-26.37 366.94-25.95 368.57-25.54 369.69-24.83L369.69-24.83Q370.48-25.27 371.77-25.57 373.06-25.88 374.45-25.88L374.45-25.88 378.61-25.88 377.56-21.68 372.31-21.68Q372.45-21.53 372.75-21.11 373.04-20.68 373.31-20.04 373.58-19.41 373.78-18.59 373.99-17.77 373.99-16.85L373.99-16.85Q373.99-14.79 373.03-13.02 372.06-11.25 370.46-9.95 368.86-8.64 366.8-7.9 364.74-7.15 362.57-7.15L362.57-7.15Q362.1-7.15 361.64-7.19 361.17-7.23 360.69-7.28L360.69-7.28Q360.29-7.03 359.86-6.73 359.42-6.42 359.05-6.07 358.68-5.71 358.44-5.3 358.2-4.88 358.2-4.44L358.2-4.44Q358.2-3.69 358.88-3.22 359.56-2.76 360.76-2.76L360.76-2.76 367.35-2.76Q369.11-2.76 370.73-2.33 372.36-1.9 373.59-1.09 374.82-0.27 375.57 0.92 376.31 2.1 376.31 3.61L376.31 3.61Q376.31 5.3 375.35 7.07 374.38 8.84 372.5 10.29 370.62 11.74 367.86 12.66 365.1 13.57 361.52 13.57L361.52 13.57Q359.22 13.57 357.26 13.17 355.29 12.77 353.84 12.02 352.38 11.28 351.57 10.22 350.75 9.16 350.75 7.84L350.75 7.84Q350.75 6.67 351.36 5.66 351.97 4.66 352.85 3.83 353.73 3 354.68 2.37 355.63 1.73 356.34 1.29ZM357.29-16.89L357.29-16.89Q357.29-15.65 357.72-14.59 358.15-13.53 358.92-12.73 359.68-11.94 360.72-11.5 361.76-11.06 363-11.06L363-11.06Q364.18-11.06 365.2-11.46 366.23-11.87 366.98-12.6 367.74-13.33 368.18-14.37 368.62-15.41 368.62-16.67L368.62-16.67Q368.62-17.92 368.19-18.97 367.77-20.02 367-20.79 366.23-21.56 365.18-22 364.13-22.44 362.88-22.44L362.88-22.44Q361.71-22.44 360.7-22.05 359.68-21.66 358.93-20.94 358.17-20.21 357.73-19.19 357.29-18.16 357.29-16.89ZM396.08 0L396.08-21.66 390.88-21.66 391.32-24.63 396.11-25.88 396.11-27Q396.11-29.59 396.89-31.87 397.67-34.16 399.14-35.88 400.62-37.6 402.79-38.6 404.97-39.6 407.75-39.6L407.75-39.6Q408.82-39.6 410.01-39.44 411.19-39.28 412.29-38.94L412.29-38.94 411.29-34.72 410.8-34.47Q410.05-34.89 409.15-35.13 408.26-35.38 407.29-35.38L407.29-35.38Q405.87-35.38 404.87-34.81 403.87-34.25 403.23-33.26 402.6-32.28 402.31-30.92 402.01-29.57 402.01-27.98L402.01-27.98 402.01-25.88 410.61-25.88 409.56-21.66 402.01-21.66 402.01 0 396.08 0ZM425.47 0.49L425.47 0.49Q422.42 0.49 420.09-0.54 417.76-1.56 416.17-3.31 414.58-5.05 413.77-7.35 412.95-9.64 412.95-12.21L412.95-12.21Q412.95-15.16 414-17.74 415.05-20.31 416.94-22.23 418.83-24.15 421.44-25.26 424.06-26.37 427.18-26.37L427.18-26.37Q430.23-26.37 432.58-25.34 434.92-24.32 436.51-22.56 438.09-20.8 438.91-18.49 439.73-16.19 439.73-13.62L439.73-13.62Q439.73-10.64 438.67-8.07 437.61-5.49 435.7-3.59 433.8-1.68 431.19-0.6 428.57 0.49 425.47 0.49ZM426.5-3.74L426.5-3.74Q428.06-3.74 429.35-4.38 430.65-5.03 431.58-6.19 432.5-7.35 433.02-8.96 433.53-10.57 433.53-12.52L433.53-12.52Q433.53-14.43 433.03-16.16 432.53-17.9 431.58-19.23 430.62-20.56 429.26-21.35 427.89-22.14 426.16-22.14L426.16-22.14Q424.57-22.14 423.28-21.48 421.98-20.83 421.07-19.65 420.15-18.48 419.64-16.86 419.13-15.23 419.13-13.31L419.13-13.31Q419.13-11.38 419.63-9.64 420.13-7.91 421.08-6.59 422.03-5.27 423.4-4.5 424.76-3.74 426.5-3.74ZM446.32 0L446.32-25.88 451.1-25.88 451.94-18.16Q452.28-18.8 452.64-19.47 453.01-20.14 453.38-20.76 453.74-21.39 454.06-21.9 454.38-22.41 454.6-22.75L454.6-22.75Q455.11-23.51 455.76-24.18 456.4-24.85 457.16-25.33 457.92-25.81 458.8-26.09 459.67-26.37 460.7-26.37L460.7-26.37Q461.41-26.37 462.12-26.2 462.82-26.03 463.31-25.66L463.31-25.66 462.68-20.21Q462.24-20.34 461.65-20.37 461.07-20.41 460.6-20.41L460.6-20.41Q459.04-20.41 457.82-19.96 456.6-19.51 455.61-18.71 454.62-17.92 453.8-16.85 452.98-15.77 452.23-14.53L452.23-14.53 452.23 0 446.32 0ZM494.43-31.47L494.43 0 488.36 0 488.36-31.47 476.76-31.47 477.56-35.77 506.4-35.77 505.59-31.47 494.43-31.47ZM514.26 0L505-25.88 511.55-25.88 516.58-9.3 517.7-4.44 518.19-4.44 519.29-9.3 524.36-25.88 529.95-25.88 516.06 13.09 510.59 13.09 516.06 0 514.26 0ZM541.21-18.46L541.21-4.76Q541.82-4.47 542.51-4.27 543.21-4.08 543.87-3.96 544.53-3.83 545.14-3.78 545.75-3.74 546.19-3.74L546.19-3.74Q548.07-3.74 549.58-4.48 551.09-5.22 552.17-6.51 553.24-7.79 553.82-9.5 554.39-11.21 554.39-13.16L554.39-13.16Q554.39-14.99 553.91-16.58 553.44-18.16 552.58-19.34 551.73-20.51 550.51-21.18 549.29-21.85 547.82-21.85L547.82-21.85Q546.07-21.85 544.37-20.91 542.67-19.97 541.21-18.46L541.21-18.46ZM540.04-25.88L540.91-21.53Q541.79-22.36 542.82-23.22 543.84-24.07 545.03-24.77 546.21-25.46 547.57-25.92 548.92-26.37 550.46-26.37L550.46-26.37Q552.83-26.37 554.7-25.33 556.56-24.29 557.86-22.57 559.15-20.85 559.85-18.62 560.54-16.38 560.54-14.01L560.54-14.01Q560.54-10.89 559.4-8.23 558.25-5.57 556.27-3.63 554.29-1.68 551.63-0.6 548.97 0.49 545.97 0.49L545.97 0.49Q545.38 0.49 544.74 0.45 544.09 0.42 543.47 0.34 542.84 0.27 542.26 0.16 541.67 0.05 541.21-0.1L541.21-0.1 541.21 13.09 535.3 13.09 535.3-25.88 540.04-25.88ZM588.3-5.32L588.3-2.37Q587.23-1.61 585.98-1.07 584.74-0.54 583.42-0.18 582.1 0.17 580.79 0.33 579.49 0.49 578.31 0.49L578.31 0.49Q575.6 0.49 573.27-0.34 570.94-1.17 569.22-2.78 567.5-4.39 566.52-6.75 565.55-9.11 565.55-12.16L565.55-12.16Q565.55-15.41 566.64-18.04 567.74-20.68 569.59-22.52 571.43-24.37 573.86-25.37 576.29-26.37 578.92-26.37L578.92-26.37Q581.12-26.37 583.01-25.65 584.91-24.93 586.29-23.51 587.66-22.09 588.45-19.97 589.23-17.85 589.23-15.04L589.23-15.04Q589.23-14.36 589.17-13.59 589.11-12.82 588.96-12.08L588.96-12.08 571.67-12.08Q571.67-10.11 572.37-8.59 573.07-7.08 574.33-6.07 575.6-5.05 577.39-4.53 579.17-4 581.32-4L581.32-4Q581.93-4 582.75-4.05 583.56-4.1 584.49-4.25 585.42-4.39 586.4-4.65 587.37-4.91 588.3-5.32L588.3-5.32ZM571.67-14.97L583.73-14.97Q583.73-16.75 583.28-18.09 582.83-19.43 582.05-20.34 581.27-21.24 580.23-21.69 579.19-22.14 578-22.14L578-22.14Q576.65-22.14 575.51-21.61 574.36-21.07 573.5-20.1 572.65-19.14 572.16-17.82 571.67-16.5 571.67-14.97L571.67-14.97ZM606.31-3.81L606.31-3.81Q607.78-3.81 609.04-4.19 610.29-4.57 611.22-5.26 612.15-5.96 612.67-6.97 613.2-7.98 613.2-9.25L613.2-9.25Q613.2-10.77 612.48-11.82 611.76-12.87 610.56-13.66 609.37-14.45 607.85-15.09 606.34-15.72 604.76-16.38 603.19-17.04 601.68-17.83 600.16-18.63 598.97-19.74 597.77-20.85 597.05-22.39 596.33-23.93 596.33-26.1L596.33-26.1Q596.33-28.47 597.23-30.35 598.14-32.23 599.77-33.54 601.41-34.86 603.68-35.56 605.95-36.25 608.68-36.25L608.68-36.25Q609.49-36.25 610.54-36.18 611.59-36.11 612.78-35.95 613.98-35.79 615.29-35.53 616.59-35.28 617.91-34.89L617.91-34.89 616.96-30.15 616.5-29.91Q615.2-30.49 613.98-30.88 612.76-31.27 611.66-31.52 610.56-31.76 609.62-31.86 608.68-31.96 607.97-31.96L607.97-31.96Q606.63-31.96 605.53-31.64 604.43-31.32 603.67-30.71 602.9-30.1 602.47-29.21 602.04-28.32 602.04-27.17L602.04-27.17Q602.04-25.63 602.77-24.55 603.51-23.46 604.69-22.63 605.88-21.8 607.4-21.15 608.93-20.51 610.53-19.84 612.13-19.17 613.65-18.38 615.18-17.6 616.36-16.53 617.55-15.45 618.28-14 619.01-12.55 619.01-10.52L619.01-10.52Q619.01-8.25 618.06-6.25 617.11-4.25 615.36-2.75 613.61-1.25 611.17-0.38 608.73 0.49 605.73 0.49L605.73 0.49Q604.51 0.49 603.17 0.33 601.82 0.17 600.43-0.12 599.04-0.42 597.67-0.85 596.3-1.29 595.04-1.86L595.04-1.86 596.01-6.64 596.5-6.88Q599.09-5.47 601.55-4.64 604.02-3.81 606.31-3.81ZM644.91-5.32L644.91-2.37Q643.18-0.98 641.05-0.24 638.93 0.49 636.49 0.49L636.49 0.49Q633.75 0.49 631.56-0.43 629.36-1.34 627.82-2.97 626.28-4.59 625.45-6.85 624.62-9.11 624.62-11.82L624.62-11.82Q624.62-15.01 625.75-17.69 626.87-20.36 628.81-22.29 630.75-24.22 633.39-25.29 636.02-26.37 639.05-26.37L639.05-26.37Q639.71-26.37 640.47-26.31 641.22-26.25 642.02-26.12 642.81-26 643.58-25.79 644.35-25.59 645.01-25.29L645.01-25.29 643.96-20.75 643.45-20.51Q643.01-20.83 642.41-21.13 641.81-21.44 641.13-21.66 640.44-21.88 639.71-22.01 638.98-22.14 638.27-22.14L638.27-22.14Q636.71-22.14 635.35-21.53 634-20.92 632.98-19.75 631.97-18.58 631.39-16.88 630.8-15.19 630.8-13.04L630.8-13.04Q630.8-10.79 631.43-9.11 632.07-7.42 633.19-6.29 634.31-5.15 635.85-4.58 637.39-4 639.2-4L639.2-4Q640.32-4 641.76-4.27 643.2-4.54 644.91-5.32L644.91-5.32ZM651.62 0L651.62-25.88 656.41-25.88 657.24-18.16Q657.58-18.8 657.95-19.47 658.31-20.14 658.68-20.76 659.04-21.39 659.36-21.9 659.68-22.41 659.9-22.75L659.9-22.75Q660.41-23.51 661.06-24.18 661.71-24.85 662.46-25.33 663.22-25.81 664.1-26.09 664.98-26.37 666-26.37L666-26.37Q666.71-26.37 667.42-26.2 668.13-26.03 668.61-25.66L668.61-25.66 667.98-20.21Q667.54-20.34 666.95-20.37 666.37-20.41 665.9-20.41L665.9-20.41Q664.34-20.41 663.12-19.96 661.9-19.51 660.91-18.71 659.92-17.92 659.1-16.85 658.29-15.77 657.53-14.53L657.53-14.53 657.53 0 651.62 0ZM674.13 0L674.13-25.88 680.06-25.88 680.06 0 674.13 0ZM677.08-30.98L677.08-30.98Q676.3-30.98 675.66-31.24 675.01-31.49 674.53-31.93 674.06-32.37 673.8-32.98 673.54-33.59 673.54-34.3L673.54-34.3Q673.54-35.03 673.82-35.66 674.1-36.28 674.61-36.76 675.11-37.23 675.78-37.5 676.45-37.77 677.23-37.77L677.23-37.77Q677.99-37.77 678.62-37.5 679.26-37.23 679.72-36.78 680.18-36.33 680.45-35.71 680.72-35.08 680.72-34.38L680.72-34.38Q680.72-33.64 680.44-33.02 680.16-32.4 679.66-31.95 679.16-31.49 678.5-31.24 677.84-30.98 677.08-30.98ZM694.17-18.46L694.17-4.76Q694.78-4.47 695.48-4.27 696.17-4.08 696.83-3.96 697.49-3.83 698.1-3.78 698.71-3.74 699.15-3.74L699.15-3.74Q701.03-3.74 702.54-4.48 704.06-5.22 705.13-6.51 706.21-7.79 706.78-9.5 707.35-11.21 707.35-13.16L707.35-13.16Q707.35-14.99 706.88-16.58 706.4-18.16 705.55-19.34 704.69-20.51 703.47-21.18 702.25-21.85 700.79-21.85L700.79-21.85Q699.03-21.85 697.33-20.91 695.64-19.97 694.17-18.46L694.17-18.46ZM693-25.88L693.88-21.53Q694.76-22.36 695.78-23.22 696.81-24.07 697.99-24.77 699.18-25.46 700.53-25.92 701.89-26.37 703.42-26.37L703.42-26.37Q705.79-26.37 707.66-25.33 709.53-24.29 710.82-22.57 712.12-20.85 712.81-18.62 713.51-16.38 713.51-14.01L713.51-14.01Q713.51-10.89 712.36-8.23 711.21-5.57 709.23-3.63 707.26-1.68 704.6-0.6 701.93 0.49 698.93 0.49L698.93 0.49Q698.35 0.49 697.7 0.45 697.05 0.42 696.43 0.34 695.81 0.27 695.22 0.16 694.63 0.05 694.17-0.1L694.17-0.1 694.17 13.09 688.26 13.09 688.26-25.88 693-25.88ZM722.29-7.15L722.29-21.66 717.09-21.66 717.53-24.44Q719.46-24.93 720.62-25.54 721.78-26.15 722.55-27.04 723.32-27.93 723.89-29.21 724.47-30.49 725.22-32.32L725.22-32.32 728.05-32.32 728.05-25.88 737.36-25.88 736.31-21.66 728.23-21.66 728.23-8.33Q728.23-7.13 728.57-6.31 728.91-5.49 729.54-4.98 730.18-4.47 731.07-4.24 731.96-4 733.08-4L733.08-4Q734.16-4 735.22-4.2 736.28-4.39 737.23-4.76L737.23-4.76 737.23-1.78Q735.57-0.66 733.68-0.09 731.79 0.49 729.86 0.49L729.86 0.49Q726.18 0.49 724.23-1.51 722.29-3.52 722.29-7.15L722.29-7.15Z" opacity="1" transform="matrix(1,0,0,1,0,0)" fill="#ffffff" class="undefined-text-1" data-fill-palette-color="secondary" id="text-1"></path></svg></g></svg></g></svg></g></svg></g><g transform="matrix(1,0,0,1,100.81641444381256,0)"><svg viewBox="0 0 42.79853111237487 55.10020227151281" height="55.10020227151281" width="42.79853111237487"><g><svg xmlns="http://www.w3.org/2000/svg" xmlns:xlink="http://www.w3.org/1999/xlink" version="1.1" x="0" y="0" viewBox="11.163000000000002 0 77.674 100" enable-background="new 0 0 100 100" xml:space="preserve" height="55.10020227151281" width="42.79853111237487" class="icon-icon-0" data-fill-palette-color="accent" id="icon-0"><path d="M54.59 69.113c0 0 34.247-0.003 34.247-33.944 0-24.466-8.281-34.462-8.281-34.462C80.233 0.319 79.559 0 79.054 0H20.949c-0.505 0-1.182 0.319-1.505 0.707 0 0-8.281 9.996-8.281 34.462 0 33.941 34.25 33.944 34.25 33.944 0.505 0 0.919 0.411 0.919 0.914V81.04c0 0.503-0.326 1.172-0.721 1.484L26.941 97.398c-0.438 0.254-0.383 0.496 0.12 0.543 0 0 3.701 2.059 22.94 2.059s22.94-2.059 22.94-2.059c0.503-0.047 0.555-0.289 0.117-0.543L54.39 82.524c-0.394-0.313-0.721-0.981-0.721-1.484V70.027C53.669 69.524 54.085 69.113 54.59 69.113zM55.261 92.602c-1.592 0.035-3.342 0.059-5.259 0.059-1.919 0-3.669-0.023-5.261-0.059l5.258-4.191L55.261 92.602zM50.004 63.165c-1.305-0.88-2.875-1.391-4.555-1.391-0.076-0.005-7.359-0.114-14.287-3.677-8.518-4.383-12.659-11.883-12.659-22.928 0-15.297 3.518-24.137 5.448-27.83h52.099c1.93 3.693 5.448 12.533 5.448 27.83 0 11.045-4.141 18.545-12.663 22.928C61.91 61.66 54.629 61.77 54.59 61.774 52.894 61.774 51.316 62.285 50.004 63.165zM52.598 57.579h-5.195c0 0-24.912-0.005-24.912-24.042l-0.01-0.84c0-0.523 1.273-1.012 3.487-1.438 0.445 4.703 1.742 9.414 4.55 13.219 3.935 5.336 10.096 8.042 18.31 8.042 1.521 0 2.752-1.229 2.752-2.75 0-1.523-1.231-2.752-2.752-2.752-6.456 0-10.995-1.896-13.875-5.797-2.19-2.969-3.195-6.793-3.534-10.699 4.898-0.484 11.409-0.781 18.586-0.781 15.198 0 27.523 1.324 27.523 2.957l-0.016 0.84C77.512 57.574 52.598 57.579 52.598 57.579z" fill="#ffffff" data-fill-palette-color="accent"></path></svg></g></svg></g><g></g></svg></g></svg></g><path d="M0 61.521L0 1 244.431 1 244.431 61.521 240.693 61.521 240.693 4.739 3.739 4.739 3.739 61.521 0 61.521M0 185.679L0 246.2 244.431 246.2 244.431 185.679 240.693 185.679 240.693 242.461 3.739 242.461 3.739 185.679 0 185.679" fill="#ffffff" stroke="transparent" data-fill-palette-color="primary"></path></svg></g><defs></defs></svg><rect width="244.43135999999998" height="247.2" fill="none" stroke="none" visibility="hidden"></rect></g></svg></g></svg>