<svg xmlns="http://www.w3.org/2000/svg" version="1.1" xmlns:xlink="http://www.w3.org/1999/xlink" xmlns:svgjs="http://svgjs.dev/svgjs" width="1000" height="209" viewBox="0 0 1000 209"><g transform="matrix(1,0,0,1,-0.6060606060606233,0.4318706100666958)"><svg viewBox="0 0 396 83" data-background-color="#ffffff" preserveAspectRatio="xMidYMid meet" height="209" width="1000" xmlns="http://www.w3.org/2000/svg" xmlns:xlink="http://www.w3.org/1999/xlink"><g id="tight-bounds" transform="matrix(1,0,0,1,0.2400000000000091,-0.17150842409347433)"><svg viewBox="0 0 395.52 83.34301684818692" height="83.34301684818692" width="395.52"><g><svg viewBox="0 0 491.36220553138594 103.53865436429153" height="83.34301684818692" width="395.52"><g transform="matrix(1,0,0,1,95.84220553138593,1.8230395003843043)"><svg viewBox="0 0 395.52 99.89257536352292" height="99.89257536352292" width="395.52"><g><svg viewBox="0 0 395.52 99.89257536352292" height="99.89257536352292" width="395.52"><g><svg viewBox="0 0 395.52 65.3162165593543" height="65.3162165593543" width="395.52"><g transform="matrix(1,0,0,1,0,0)"><svg width="395.52" viewBox="0.98 -37.15 275.65 45.53" height="65.3162165593543" data-palette-color="#ffa96a"><path d="M11.73 0.4L11.73 0.4Q8.4 0.4 6.6-1.49 4.8-3.38 4.8-6.7L4.8-6.7 4.8-21.03 2.2-21.03Q1.7-21.03 1.34-21.35 0.98-21.68 0.98-22.33L0.98-22.33 0.98-24.78 5.1-25.45 6.4-32.45Q6.5-32.95 6.86-33.23 7.23-33.5 7.78-33.5L7.78-33.5 10.98-33.5 10.98-25.43 17.73-25.43 17.73-21.03 10.98-21.03 10.98-7.13Q10.98-5.93 11.58-5.25 12.18-4.58 13.18-4.58L13.18-4.58Q13.75-4.58 14.14-4.71 14.53-4.85 14.81-5 15.1-5.15 15.33-5.29 15.55-5.43 15.78-5.43L15.78-5.43Q16.05-5.43 16.23-5.29 16.4-5.15 16.6-4.88L16.6-4.88 18.45-1.88Q17.1-0.75 15.35-0.18 13.6 0.4 11.73 0.4ZM45.72-25.65L31.75 7.05Q31.47 7.7 31.04 8.04 30.6 8.38 29.7 8.38L29.7 8.38 25.1 8.38 29.9-1.9 19.52-25.65 24.92-25.65Q25.67-25.65 26.07-25.3 26.47-24.95 26.67-24.5L26.67-24.5 32.15-11.2Q32.42-10.55 32.62-9.85 32.82-9.15 32.97-8.45L32.97-8.45Q33.17-9.18 33.41-9.85 33.65-10.53 33.92-11.23L33.92-11.23 39.07-24.5Q39.27-25 39.73-25.33 40.2-25.65 40.77-25.65L40.77-25.65 45.72-25.65ZM55.5 8.38L49.32 8.38 49.32-25.65 53.1-25.65Q53.7-25.65 54.12-25.38 54.55-25.1 54.67-24.53L54.67-24.53 55.17-22.15Q56.72-23.93 58.73-25.03 60.75-26.13 63.45-26.13L63.45-26.13Q65.55-26.13 67.28-25.25 69.02-24.38 70.28-22.71 71.55-21.05 72.23-18.61 72.92-16.18 72.92-13.03L72.92-13.03Q72.92-10.15 72.15-7.7 71.37-5.25 69.93-3.45 68.5-1.65 66.46-0.64 64.42 0.38 61.9 0.38L61.9 0.38Q59.72 0.38 58.21-0.29 56.7-0.95 55.5-2.13L55.5-2.13 55.5 8.38ZM61.32-21.25L61.32-21.25Q59.4-21.25 58.03-20.44 56.67-19.63 55.5-18.15L55.5-18.15 55.5-6.65Q56.55-5.35 57.78-4.84 59.02-4.33 60.45-4.33L60.45-4.33Q61.85-4.33 62.98-4.85 64.12-5.38 64.91-6.45 65.7-7.53 66.12-9.16 66.55-10.8 66.55-13.03L66.55-13.03Q66.55-15.28 66.18-16.84 65.82-18.4 65.15-19.38 64.47-20.35 63.51-20.8 62.55-21.25 61.32-21.25ZM88.19-26.05L88.19-26.05Q90.62-26.05 92.66-25.28 94.69-24.5 96.17-23.01 97.64-21.53 98.47-19.36 99.29-17.2 99.29-14.43L99.29-14.43Q99.29-13.73 99.23-13.26 99.17-12.8 99.01-12.54 98.84-12.28 98.57-12.16 98.29-12.05 97.87-12.05L97.87-12.05 82.02-12.05Q82.29-8.1 84.14-6.25 85.99-4.4 89.04-4.4L89.04-4.4Q90.54-4.4 91.63-4.75 92.72-5.1 93.53-5.53 94.34-5.95 94.96-6.3 95.57-6.65 96.14-6.65L96.14-6.65Q96.52-6.65 96.79-6.5 97.07-6.35 97.27-6.08L97.27-6.08 99.07-3.83Q98.04-2.63 96.77-1.81 95.49-1 94.11-0.51 92.72-0.03 91.28 0.18 89.84 0.38 88.49 0.38L88.49 0.38Q85.82 0.38 83.52-0.51 81.22-1.4 79.52-3.14 77.82-4.88 76.84-7.44 75.87-10 75.87-13.38L75.87-13.38Q75.87-16 76.72-18.31 77.57-20.63 79.16-22.34 80.74-24.05 83.03-25.05 85.32-26.05 88.19-26.05ZM88.32-21.63L88.32-21.63Q85.62-21.63 84.09-20.1 82.57-18.57 82.14-15.78L82.14-15.78 93.74-15.78Q93.74-16.98 93.42-18.04 93.09-19.1 92.42-19.9 91.74-20.7 90.72-21.16 89.69-21.63 88.32-21.63ZM103.52-12.53L103.52-17.68 116.47-17.68 116.47-12.53 103.52-12.53ZM126.41 0L122.34 0 122.34-37.15 128.51-37.15 128.51-22.5Q130.04-24.13 131.96-25.09 133.89-26.05 136.46-26.05L136.46-26.05Q138.56-26.05 140.3-25.19 142.04-24.33 143.3-22.68 144.56-21.03 145.25-18.6 145.94-16.18 145.94-13.03L145.94-13.03Q145.94-10.15 145.16-7.7 144.39-5.25 142.95-3.45 141.51-1.65 139.48-0.64 137.44 0.38 134.91 0.38L134.91 0.38Q133.74 0.38 132.76 0.14 131.79-0.1 130.99-0.53 130.19-0.95 129.5-1.56 128.81-2.18 128.19-2.93L128.19-2.93 127.91-1.2Q127.76-0.55 127.4-0.28 127.04 0 126.41 0L126.41 0ZM134.34-21.25L134.34-21.25Q132.41-21.25 131.05-20.44 129.69-19.63 128.51-18.15L128.51-18.15 128.51-6.65Q129.56-5.35 130.8-4.84 132.04-4.33 133.49-4.33L133.49-4.33Q134.89-4.33 136.01-4.85 137.14-5.38 137.93-6.45 138.71-7.53 139.14-9.16 139.56-10.8 139.56-13.03L139.56-13.03Q139.56-15.28 139.2-16.84 138.84-18.4 138.16-19.38 137.49-20.35 136.53-20.8 135.56-21.25 134.34-21.25ZM156.94 0L150.76 0 150.76-25.65 154.39-25.65Q155.34-25.65 155.71-25.3 156.09-24.95 156.21-24.1L156.21-24.1 156.59-21Q157.96-23.38 159.81-24.75 161.66-26.13 163.96-26.13L163.96-26.13Q165.86-26.13 167.11-25.25L167.11-25.25 166.31-20.63Q166.24-20.18 165.99-19.99 165.74-19.8 165.31-19.8L165.31-19.8Q164.94-19.8 164.29-19.98 163.64-20.15 162.56-20.15L162.56-20.15Q160.64-20.15 159.26-19.09 157.89-18.03 156.94-15.98L156.94-15.98 156.94 0ZM190.56-16.2L190.56 0 187.78 0Q186.91 0 186.41-0.26 185.91-0.53 185.66-1.33L185.66-1.33 185.11-3.15Q184.13-2.27 183.2-1.61 182.26-0.95 181.26-0.5 180.26-0.05 179.13 0.18 178.01 0.4 176.63 0.4L176.63 0.4Q175.01 0.4 173.63-0.04 172.26-0.48 171.27-1.35 170.28-2.23 169.73-3.53 169.18-4.83 169.18-6.55L169.18-6.55Q169.18-8 169.95-9.41 170.71-10.83 172.48-11.96 174.26-13.1 177.21-13.85 180.16-14.6 184.53-14.7L184.53-14.7 184.53-16.2Q184.53-18.78 183.45-20.01 182.36-21.25 180.28-21.25L180.28-21.25Q178.78-21.25 177.78-20.9 176.78-20.55 176.05-20.11 175.31-19.68 174.68-19.33 174.06-18.98 173.31-18.98L173.31-18.98Q172.68-18.98 172.23-19.3 171.78-19.63 171.51-20.1L171.51-20.1 170.38-22.08Q174.81-26.13 181.06-26.13L181.06-26.13Q183.31-26.13 185.07-25.39 186.83-24.65 188.06-23.34 189.28-22.03 189.92-20.2 190.56-18.38 190.56-16.2L190.56-16.2ZM178.56-3.85L178.56-3.85Q179.51-3.85 180.31-4.03 181.11-4.2 181.82-4.55 182.53-4.9 183.2-5.41 183.86-5.93 184.53-6.63L184.53-6.63 184.53-10.95Q181.83-10.83 180.02-10.49 178.21-10.15 177.11-9.63 176.01-9.1 175.55-8.4 175.08-7.7 175.08-6.88L175.08-6.88Q175.08-5.25 176.05-4.55 177.01-3.85 178.56-3.85ZM202.81 0L196.63 0 196.63-25.65 200.41-25.65Q201.61-25.65 201.98-24.53L201.98-24.53 202.41-22.5Q203.18-23.3 204.04-23.95 204.91-24.6 205.87-25.08 206.83-25.55 207.93-25.8 209.03-26.05 210.33-26.05L210.33-26.05Q212.43-26.05 214.06-25.34 215.68-24.63 216.77-23.34 217.86-22.05 218.42-20.26 218.98-18.48 218.98-16.32L218.98-16.32 218.98 0 212.81 0 212.81-16.32Q212.81-18.68 211.72-19.96 210.63-21.25 208.46-21.25L208.46-21.25Q206.86-21.25 205.46-20.53 204.06-19.8 202.81-18.55L202.81-18.55 202.81 0ZM246.88 0L243.1 0Q241.9 0 241.53-1.13L241.53-1.13 241.03-3.6Q240.23-2.7 239.35-1.98 238.48-1.25 237.47-0.73 236.45-0.2 235.29 0.09 234.13 0.38 232.78 0.38L232.78 0.38Q230.68 0.38 228.93-0.5 227.18-1.38 225.92-3.04 224.65-4.7 223.97-7.15 223.28-9.6 223.28-12.75L223.28-12.75Q223.28-15.6 224.05-18.05 224.83-20.5 226.28-22.3 227.73-24.1 229.75-25.11 231.78-26.13 234.3-26.13L234.3-26.13Q236.45-26.13 237.98-25.44 239.5-24.75 240.7-23.6L240.7-23.6 240.7-37.15 246.88-37.15 246.88 0ZM234.88-4.53L234.88-4.53Q236.8-4.53 238.15-5.33 239.5-6.13 240.7-7.6L240.7-7.6 240.7-19.1Q239.65-20.38 238.42-20.9 237.18-21.43 235.75-21.43L235.75-21.43Q234.35-21.43 233.22-20.9 232.08-20.38 231.29-19.31 230.5-18.25 230.08-16.61 229.65-14.98 229.65-12.75L229.65-12.75Q229.65-10.5 230.02-8.94 230.38-7.38 231.05-6.39 231.73-5.4 232.7-4.96 233.68-4.53 234.88-4.53ZM276.63-25.65L262.65 7.05Q262.38 7.7 261.94 8.04 261.5 8.38 260.6 8.38L260.6 8.38 256 8.38 260.8-1.9 250.43-25.65 255.83-25.65Q256.58-25.65 256.98-25.3 257.38-24.95 257.58-24.5L257.58-24.5 263.05-11.2Q263.33-10.55 263.53-9.85 263.73-9.15 263.88-8.45L263.88-8.45Q264.08-9.18 264.31-9.85 264.55-10.53 264.83-11.23L264.83-11.23 269.98-24.5Q270.18-25 270.64-25.33 271.1-25.65 271.68-25.65L271.68-25.65 276.63-25.65Z" opacity="1" transform="matrix(1,0,0,1,0,0)" fill="#ffa96a" class="undefined-text-0" data-fill-palette-color="primary" id="text-0"></path></svg></g></svg></g><g transform="matrix(1,0,0,1,0,80.73580769982043)"><svg viewBox="0 0 300.5952 19.156767663702503" height="19.156767663702503" width="300.5952"><g transform="matrix(1,0,0,1,0,0)"><svg width="300.5952" viewBox="5.7 -37.35 742.13 47.3" height="19.156767663702503" data-palette-color="#e65728"><path d="M31.3-35L34.95-35 34.95 0 31.9 0 9.4-28.4 9.4 0 5.7 0 5.7-35 8.75-35 31.3-6.6 31.3-35ZM56.35 0.25Q52.55 0.25 49.5-1.48 46.45-3.2 44.7-6.25 42.95-9.3 42.95-13.15L42.95-13.15Q42.95-17 44.7-20.05 46.45-23.1 49.5-24.8 52.55-26.5 56.35-26.5L56.35-26.5Q60.15-26.5 63.2-24.8 66.25-23.1 67.97-20.05 69.7-17 69.7-13.15L69.7-13.15Q69.7-9.3 67.97-6.25 66.25-3.2 63.2-1.48 60.15 0.25 56.35 0.25L56.35 0.25ZM56.35-2.9Q59.15-2.9 61.37-4.17 63.6-5.45 64.85-7.8 66.1-10.15 66.1-13.15L66.1-13.15Q66.1-16.15 64.85-18.5 63.6-20.85 61.37-22.13 59.15-23.4 56.35-23.4L56.35-23.4Q53.55-23.4 51.32-22.13 49.1-20.85 47.82-18.5 46.55-16.15 46.55-13.15L46.55-13.15Q46.55-10.15 47.82-7.8 49.1-5.45 51.32-4.17 53.55-2.9 56.35-2.9L56.35-2.9ZM109.75-26.5Q114.7-26.5 117.52-23.65 120.34-20.8 120.34-15.25L120.34-15.25 120.34 0 116.8 0 116.8-14.9Q116.8-19 114.82-21.15 112.84-23.3 109.25-23.3L109.25-23.3Q105.15-23.3 102.8-20.78 100.45-18.25 100.45-13.8L100.45-13.8 100.45 0 96.9 0 96.9-14.9Q96.9-19 94.92-21.15 92.95-23.3 89.3-23.3L89.3-23.3Q85.25-23.3 82.87-20.78 80.5-18.25 80.5-13.8L80.5-13.8 80.5 0 76.95 0 76.95-26.3 80.34-26.3 80.34-21.5Q81.75-23.9 84.25-25.2 86.75-26.5 90-26.5L90-26.5Q93.3-26.5 95.72-25.1 98.15-23.7 99.34-20.95L99.34-20.95Q100.8-23.55 103.52-25.03 106.25-26.5 109.75-26.5L109.75-26.5ZM129.99 0L129.99-26.3 133.54-26.3 133.54 0 129.99 0ZM131.79-32.05Q130.69-32.05 129.94-32.8 129.19-33.55 129.19-34.6L129.19-34.6Q129.19-35.6 129.94-36.35 130.69-37.1 131.79-37.1L131.79-37.1Q132.89-37.1 133.64-36.38 134.39-35.65 134.39-34.65L134.39-34.65Q134.39-33.55 133.64-32.8 132.89-32.05 131.79-32.05L131.79-32.05ZM156.84-26.5Q161.79-26.5 164.72-23.63 167.64-20.75 167.64-15.25L167.64-15.25 167.64 0 164.09 0 164.09-14.9Q164.09-19 162.04-21.15 159.99-23.3 156.19-23.3L156.19-23.3Q151.94-23.3 149.47-20.78 146.99-18.25 146.99-13.8L146.99-13.8 146.99 0 143.44 0 143.44-26.3 146.84-26.3 146.84-21.45Q148.29-23.85 150.87-25.18 153.44-26.5 156.84-26.5L156.84-26.5ZM186.49-26.5Q191.64-26.5 194.39-23.93 197.14-21.35 197.14-16.3L197.14-16.3 197.14 0 193.74 0 193.74-4.1Q192.54-2.05 190.21-0.9 187.89 0.25 184.69 0.25L184.69 0.25Q180.29 0.25 177.69-1.85 175.09-3.95 175.09-7.4L175.09-7.4Q175.09-10.75 177.51-12.8 179.94-14.85 185.24-14.85L185.24-14.85 193.59-14.85 193.59-16.45Q193.59-19.85 191.69-21.63 189.79-23.4 186.14-23.4L186.14-23.4Q183.64-23.4 181.34-22.58 179.04-21.75 177.39-20.3L177.39-20.3 175.79-22.95Q177.79-24.65 180.59-25.58 183.39-26.5 186.49-26.5L186.49-26.5ZM185.24-2.55Q188.24-2.55 190.39-3.93 192.54-5.3 193.59-7.9L193.59-7.9 193.59-12.2 185.34-12.2Q178.59-12.2 178.59-7.5L178.59-7.5Q178.59-5.2 180.34-3.88 182.09-2.55 185.24-2.55L185.24-2.55ZM206.78 0L206.78-37.1 210.34-37.1 210.34 0 206.78 0ZM245.93-4.15L247.18-1.6Q246.18-0.7 244.7-0.23 243.23 0.25 241.63 0.25L241.63 0.25Q237.93 0.25 235.93-1.75 233.93-3.75 233.93-7.4L233.93-7.4 233.93-23.3 229.23-23.3 229.23-26.3 233.93-26.3 233.93-32.05 237.48-32.05 237.48-26.3 245.48-26.3 245.48-23.3 237.48-23.3 237.48-7.6Q237.48-5.25 238.66-4.03 239.83-2.8 242.03-2.8L242.03-2.8Q243.13-2.8 244.16-3.15 245.18-3.5 245.93-4.15L245.93-4.15ZM271.73-26.3L275.23-26.3 262.08 3.15Q260.48 6.85 258.38 8.4 256.28 9.95 253.33 9.95L253.33 9.95Q251.43 9.95 249.78 9.35 248.13 8.75 246.93 7.55L246.93 7.55 248.58 4.9Q250.58 6.9 253.38 6.9L253.38 6.9Q255.18 6.9 256.45 5.9 257.73 4.9 258.83 2.5L258.83 2.5 259.98-0.05 248.23-26.3 251.93-26.3 261.83-3.95 271.73-26.3ZM293.78-26.5Q297.48-26.5 300.48-24.83 303.48-23.15 305.18-20.1 306.88-17.05 306.88-13.15L306.88-13.15Q306.88-9.2 305.18-6.15 303.48-3.1 300.5-1.43 297.53 0.25 293.78 0.25L293.78 0.25Q290.58 0.25 288-1.07 285.43-2.4 283.78-4.95L283.78-4.95 283.78 9.7 280.23 9.7 280.23-26.3 283.63-26.3 283.63-21.1Q285.23-23.7 287.85-25.1 290.48-26.5 293.78-26.5L293.78-26.5ZM293.53-2.9Q296.28-2.9 298.53-4.17 300.78-5.45 302.05-7.8 303.33-10.15 303.33-13.15L303.33-13.15Q303.33-16.15 302.05-18.48 300.78-20.8 298.53-22.1 296.28-23.4 293.53-23.4L293.53-23.4Q290.73-23.4 288.5-22.1 286.28-20.8 285-18.48 283.73-16.15 283.73-13.15L283.73-13.15Q283.73-10.15 285-7.8 286.28-5.45 288.5-4.17 290.73-2.9 293.53-2.9L293.53-2.9ZM314.12 0L314.12-26.3 317.67-26.3 317.67 0 314.12 0ZM315.92-32.05Q314.82-32.05 314.07-32.8 313.32-33.55 313.32-34.6L313.32-34.6Q313.32-35.6 314.07-36.35 314.82-37.1 315.92-37.1L315.92-37.1Q317.02-37.1 317.77-36.38 318.52-35.65 318.52-34.65L318.52-34.65Q318.52-33.55 317.77-32.8 317.02-32.05 315.92-32.05L315.92-32.05ZM340.97-26.5Q345.92-26.5 348.85-23.63 351.77-20.75 351.77-15.25L351.77-15.25 351.77 0 348.22 0 348.22-14.9Q348.22-19 346.17-21.15 344.12-23.3 340.32-23.3L340.32-23.3Q336.07-23.3 333.6-20.78 331.12-18.25 331.12-13.8L331.12-13.8 331.12 0 327.57 0 327.57-26.3 330.97-26.3 330.97-21.45Q332.42-23.85 335-25.18 337.57-26.5 340.97-26.5L340.97-26.5ZM382.47-26.3L385.87-26.3 385.87-3.2Q385.87 3.5 382.59 6.73 379.32 9.95 372.72 9.95L372.72 9.95Q369.07 9.95 365.79 8.88 362.52 7.8 360.47 5.9L360.47 5.9 362.27 3.2Q364.17 4.9 366.89 5.85 369.62 6.8 372.62 6.8L372.62 6.8Q377.62 6.8 379.97 4.48 382.32 2.15 382.32-2.75L382.32-2.75 382.32-6.1Q380.67-3.6 377.99-2.3 375.32-1 372.07-1L372.07-1Q368.37-1 365.34-2.63 362.32-4.25 360.59-7.18 358.87-10.1 358.87-13.8L358.87-13.8Q358.87-17.5 360.59-20.4 362.32-23.3 365.32-24.9 368.32-26.5 372.07-26.5L372.07-26.5Q375.42-26.5 378.12-25.15 380.82-23.8 382.47-21.25L382.47-21.25 382.47-26.3ZM372.42-4.15Q375.27-4.15 377.57-5.38 379.87-6.6 381.14-8.8 382.42-11 382.42-13.8L382.42-13.8Q382.42-16.6 381.14-18.78 379.87-20.95 377.59-22.18 375.32-23.4 372.42-23.4L372.42-23.4Q369.57-23.4 367.29-22.2 365.02-21 363.74-18.8 362.47-16.6 362.47-13.8L362.47-13.8Q362.47-11 363.74-8.8 365.02-6.6 367.29-5.38 369.57-4.15 372.42-4.15L372.42-4.15ZM417.61-34.35Q415.31-34.35 414.14-33.1 412.96-31.85 412.96-29.4L412.96-29.4 412.96-26.3 421.06-26.3 421.06-23.3 413.06-23.3 413.06 0 409.51 0 409.51-23.3 404.81-23.3 404.81-26.3 409.51-26.3 409.51-29.55Q409.51-33.15 411.59-35.25 413.66-37.35 417.46-37.35L417.46-37.35Q418.96-37.35 420.36-36.93 421.76-36.5 422.71-35.7L422.71-35.7 421.51-33.05Q419.96-34.35 417.61-34.35L417.61-34.35ZM436.16 0.25Q432.36 0.25 429.31-1.48 426.26-3.2 424.51-6.25 422.76-9.3 422.76-13.15L422.76-13.15Q422.76-17 424.51-20.05 426.26-23.1 429.31-24.8 432.36-26.5 436.16-26.5L436.16-26.5Q439.96-26.5 443.01-24.8 446.06-23.1 447.79-20.05 449.51-17 449.51-13.15L449.51-13.15Q449.51-9.3 447.79-6.25 446.06-3.2 443.01-1.48 439.96 0.25 436.16 0.25L436.16 0.25ZM436.16-2.9Q438.96-2.9 441.19-4.17 443.41-5.45 444.66-7.8 445.91-10.15 445.91-13.15L445.91-13.15Q445.91-16.15 444.66-18.5 443.41-20.85 441.19-22.13 438.96-23.4 436.16-23.4L436.16-23.4Q433.36-23.4 431.14-22.13 428.91-20.85 427.64-18.5 426.36-16.15 426.36-13.15L426.36-13.15Q426.36-10.15 427.64-7.8 428.91-5.45 431.14-4.17 433.36-2.9 436.16-2.9L436.16-2.9ZM460.16-21.15Q461.41-23.8 463.88-25.15 466.36-26.5 470.01-26.5L470.01-26.5 470.01-23.05 469.16-23.1Q465.01-23.1 462.66-20.55 460.31-18 460.31-13.4L460.31-13.4 460.31 0 456.76 0 456.76-26.3 460.16-26.3 460.16-21.15ZM497.45 0L497.45-31.8 485.15-31.8 485.15-35 513.45-35 513.45-31.8 501.15-31.8 501.15 0 497.45 0ZM535.5-26.3L539-26.3 525.85 3.15Q524.25 6.85 522.15 8.4 520.05 9.95 517.1 9.95L517.1 9.95Q515.2 9.95 513.55 9.35 511.9 8.75 510.7 7.55L510.7 7.55 512.35 4.9Q514.35 6.9 517.15 6.9L517.15 6.9Q518.95 6.9 520.23 5.9 521.5 4.9 522.6 2.5L522.6 2.5 523.75-0.05 512-26.3 515.7-26.3 525.6-3.95 535.5-26.3ZM557.55-26.5Q561.25-26.5 564.25-24.83 567.25-23.15 568.95-20.1 570.65-17.05 570.65-13.15L570.65-13.15Q570.65-9.2 568.95-6.15 567.25-3.1 564.27-1.43 561.3 0.25 557.55 0.25L557.55 0.25Q554.35 0.25 551.77-1.07 549.2-2.4 547.55-4.95L547.55-4.95 547.55 9.7 544 9.7 544-26.3 547.4-26.3 547.4-21.1Q549-23.7 551.62-25.1 554.25-26.5 557.55-26.5L557.55-26.5ZM557.3-2.9Q560.05-2.9 562.3-4.17 564.55-5.45 565.82-7.8 567.1-10.15 567.1-13.15L567.1-13.15Q567.1-16.15 565.82-18.48 564.55-20.8 562.3-22.1 560.05-23.4 557.3-23.4L557.3-23.4Q554.5-23.4 552.27-22.1 550.05-20.8 548.77-18.48 547.5-16.15 547.5-13.15L547.5-13.15Q547.5-10.15 548.77-7.8 550.05-5.45 552.27-4.17 554.5-2.9 557.3-2.9L557.3-2.9ZM600.85-13.15L600.8-12.05 578.8-12.05Q579.1-7.95 581.95-5.43 584.8-2.9 589.15-2.9L589.15-2.9Q591.6-2.9 593.65-3.78 595.7-4.65 597.2-6.35L597.2-6.35 599.2-4.05Q597.45-1.95 594.82-0.85 592.2 0.25 589.05 0.25L589.05 0.25Q585 0.25 581.87-1.48 578.75-3.2 577-6.25 575.25-9.3 575.25-13.15L575.25-13.15Q575.25-17 576.92-20.05 578.6-23.1 581.52-24.8 584.45-26.5 588.1-26.5L588.1-26.5Q591.75-26.5 594.65-24.8 597.55-23.1 599.2-20.08 600.85-17.05 600.85-13.15L600.85-13.15ZM588.1-23.45Q584.3-23.45 581.72-21.03 579.15-18.6 578.8-14.7L578.8-14.7 597.45-14.7Q597.1-18.6 594.52-21.03 591.95-23.45 588.1-23.45L588.1-23.45ZM618.49 0.3Q614.59 0.3 611.02-0.95 607.44-2.2 605.49-4.25L605.49-4.25 606.94-7.1Q608.84-5.2 611.99-4.03 615.14-2.85 618.49-2.85L618.49-2.85Q623.19-2.85 625.54-4.58 627.89-6.3 627.89-9.05L627.89-9.05Q627.89-11.15 626.62-12.4 625.34-13.65 623.49-14.33 621.64-15 618.34-15.8L618.34-15.8Q614.39-16.8 612.04-17.73 609.69-18.65 608.02-20.55 606.34-22.45 606.34-25.7L606.34-25.7Q606.34-28.35 607.74-30.53 609.14-32.7 612.04-34 614.94-35.3 619.24-35.3L619.24-35.3Q622.24-35.3 625.12-34.48 627.99-33.65 630.09-32.2L630.09-32.2 628.84-29.25Q626.64-30.7 624.14-31.43 621.64-32.15 619.24-32.15L619.24-32.15Q614.64-32.15 612.32-30.38 609.99-28.6 609.99-25.8L609.99-25.8Q609.99-23.7 611.27-22.43 612.54-21.15 614.47-20.48 616.39-19.8 619.64-19L619.64-19Q623.49-18.05 625.87-17.13 628.24-16.2 629.89-14.33 631.54-12.45 631.54-9.25L631.54-9.25Q631.54-6.6 630.12-4.42 628.69-2.25 625.74-0.98 622.79 0.3 618.49 0.3L618.49 0.3ZM649.74 0.25Q645.84 0.25 642.76-1.45 639.69-3.15 637.94-6.23 636.19-9.3 636.19-13.15L636.19-13.15Q636.19-17 637.94-20.05 639.69-23.1 642.76-24.8 645.84-26.5 649.74-26.5L649.74-26.5Q653.14-26.5 655.81-25.18 658.49-23.85 660.04-21.3L660.04-21.3 657.39-19.5Q656.09-21.45 654.09-22.43 652.09-23.4 649.74-23.4L649.74-23.4Q646.89-23.4 644.62-22.13 642.34-20.85 641.06-18.5 639.79-16.15 639.79-13.15L639.79-13.15Q639.79-10.1 641.06-7.78 642.34-5.45 644.62-4.17 646.89-2.9 649.74-2.9L649.74-2.9Q652.09-2.9 654.09-3.85 656.09-4.8 657.39-6.75L657.39-6.75 660.04-4.95Q658.49-2.4 655.79-1.07 653.09 0.25 649.74 0.25L649.74 0.25ZM670.39-21.15Q671.64-23.8 674.11-25.15 676.59-26.5 680.24-26.5L680.24-26.5 680.24-23.05 679.39-23.1Q675.24-23.1 672.89-20.55 670.54-18 670.54-13.4L670.54-13.4 670.54 0 666.99 0 666.99-26.3 670.39-26.3 670.39-21.15ZM686.63 0L686.63-26.3 690.18-26.3 690.18 0 686.63 0ZM688.43-32.05Q687.33-32.05 686.58-32.8 685.83-33.55 685.83-34.6L685.83-34.6Q685.83-35.6 686.58-36.35 687.33-37.1 688.43-37.1L688.43-37.1Q689.53-37.1 690.28-36.38 691.03-35.65 691.03-34.65L691.03-34.65Q691.03-33.55 690.28-32.8 689.53-32.05 688.43-32.05L688.43-32.05ZM713.63-26.5Q717.33-26.5 720.33-24.83 723.33-23.15 725.03-20.1 726.73-17.05 726.73-13.15L726.73-13.15Q726.73-9.2 725.03-6.15 723.33-3.1 720.36-1.43 717.38 0.25 713.63 0.25L713.63 0.25Q710.43 0.25 707.86-1.07 705.28-2.4 703.63-4.95L703.63-4.95 703.63 9.7 700.08 9.7 700.08-26.3 703.48-26.3 703.48-21.1Q705.08-23.7 707.71-25.1 710.33-26.5 713.63-26.5L713.63-26.5ZM713.38-2.9Q716.13-2.9 718.38-4.17 720.63-5.45 721.91-7.8 723.18-10.15 723.18-13.15L723.18-13.15Q723.18-16.15 721.91-18.48 720.63-20.8 718.38-22.1 716.13-23.4 713.38-23.4L713.38-23.4Q710.58-23.4 708.36-22.1 706.13-20.8 704.86-18.48 703.58-16.15 703.58-13.15L703.58-13.15Q703.58-10.15 704.86-7.8 706.13-5.45 708.36-4.17 710.58-2.9 713.38-2.9L713.38-2.9ZM746.58-4.15L747.83-1.6Q746.83-0.7 745.35-0.23 743.88 0.25 742.28 0.25L742.28 0.25Q738.58 0.25 736.58-1.75 734.58-3.75 734.58-7.4L734.58-7.4 734.58-23.3 729.88-23.3 729.88-26.3 734.58-26.3 734.58-32.05 738.13-32.05 738.13-26.3 746.13-26.3 746.13-23.3 738.13-23.3 738.13-7.6Q738.13-5.25 739.3-4.03 740.48-2.8 742.68-2.8L742.68-2.8Q743.78-2.8 744.8-3.15 745.83-3.5 746.58-4.15L746.58-4.15Z" opacity="1" transform="matrix(1,0,0,1,0,0)" fill="#e65728" class="undefined-text-1" data-fill-palette-color="secondary" id="text-1"></path></svg></g></svg></g></svg></g></svg></g><g><svg viewBox="0 0 80.4226143909198 103.53865436429153" height="103.53865436429153" width="80.4226143909198"><g><svg xmlns="http://www.w3.org/2000/svg" xmlns:xlink="http://www.w3.org/1999/xlink" version="1.1" x="0" y="0" viewBox="11.163000000000002 0 77.674 100" enable-background="new 0 0 100 100" xml:space="preserve" height="103.53865436429153" width="80.4226143909198" class="icon-icon-0" data-fill-palette-color="accent" id="icon-0"><path d="M54.59 69.113c0 0 34.247-0.003 34.247-33.944 0-24.466-8.281-34.462-8.281-34.462C80.233 0.319 79.559 0 79.054 0H20.949c-0.505 0-1.182 0.319-1.505 0.707 0 0-8.281 9.996-8.281 34.462 0 33.941 34.25 33.944 34.25 33.944 0.505 0 0.919 0.411 0.919 0.914V81.04c0 0.503-0.326 1.172-0.721 1.484L26.941 97.398c-0.438 0.254-0.383 0.496 0.12 0.543 0 0 3.701 2.059 22.94 2.059s22.94-2.059 22.94-2.059c0.503-0.047 0.555-0.289 0.117-0.543L54.39 82.524c-0.394-0.313-0.721-0.981-0.721-1.484V70.027C53.669 69.524 54.085 69.113 54.59 69.113zM55.261 92.602c-1.592 0.035-3.342 0.059-5.259 0.059-1.919 0-3.669-0.023-5.261-0.059l5.258-4.191L55.261 92.602zM50.004 63.165c-1.305-0.88-2.875-1.391-4.555-1.391-0.076-0.005-7.359-0.114-14.287-3.677-8.518-4.383-12.659-11.883-12.659-22.928 0-15.297 3.518-24.137 5.448-27.83h52.099c1.93 3.693 5.448 12.533 5.448 27.83 0 11.045-4.141 18.545-12.663 22.928C61.91 61.66 54.629 61.77 54.59 61.774 52.894 61.774 51.316 62.285 50.004 63.165zM52.598 57.579h-5.195c0 0-24.912-0.005-24.912-24.042l-0.01-0.84c0-0.523 1.273-1.012 3.487-1.438 0.445 4.703 1.742 9.414 4.55 13.219 3.935 5.336 10.096 8.042 18.31 8.042 1.521 0 2.752-1.229 2.752-2.75 0-1.523-1.231-2.752-2.752-2.752-6.456 0-10.995-1.896-13.875-5.797-2.19-2.969-3.195-6.793-3.534-10.699 4.898-0.484 11.409-0.781 18.586-0.781 15.198 0 27.523 1.324 27.523 2.957l-0.016 0.84C77.512 57.574 52.598 57.579 52.598 57.579z" fill="#e65728" data-fill-palette-color="accent"></path></svg></g></svg></g></svg></g><defs></defs></svg><rect width="395.52" height="83.34301684818692" fill="none" stroke="none" visibility="hidden"></rect></g></svg></g></svg>